<svg width="494" height="117" viewBox="0 0 494 117" fill="none" xmlns="http://www.w3.org/2000/svg">
<path d="M165.546 58.5834C158.442 58.5374 152.655 56.2672 148.186 51.7726C143.712 47.2781 141.475 41.3586 141.475 34.0141C141.475 26.6645 143.712 20.7424 148.186 16.2479C152.655 11.7534 158.575 9.5061 165.945 9.5061C171.971 9.5061 177.298 11.0332 181.926 14.0875L183.274 23.5949H182.669C181.678 19.7286 179.678 16.751 176.67 14.6621C173.657 12.5731 170.082 11.5286 165.945 11.5286C160.061 11.5286 155.354 13.5742 151.825 17.6652C148.296 21.7512 146.531 27.165 146.531 33.9068C146.531 40.6486 148.273 46.0778 151.756 50.1944C155.239 54.3059 159.836 56.428 165.546 56.5608C170.577 56.5608 174.778 55.1895 178.149 52.4468C181.79 49.4845 183.994 44.6529 184.76 37.9519H185.297L184.485 48.5396C180.399 55.2355 174.086 58.5834 165.546 58.5834ZM203.362 18.9063C206.824 17.134 210.635 16.2479 214.792 16.2479C218.949 16.2479 222.76 17.134 226.222 18.9063C229.68 20.6837 232.433 23.1915 234.481 26.4296C236.524 29.6626 237.546 33.3246 237.546 37.4156C237.546 41.5067 236.524 45.1687 234.481 48.4017C232.433 51.6398 229.68 54.1476 226.222 55.925C222.76 57.6972 219.207 58.5834 215.566 58.5834C211.924 58.5834 208.712 58.0675 205.928 57.0358C203.139 55.999 200.724 54.5613 198.681 52.7226C196.633 50.8788 195.014 48.6316 193.823 45.9808C192.633 43.3249 192.038 40.212 192.038 36.6419C192.038 33.0667 193.06 29.6626 195.103 26.4296C197.151 23.1915 199.904 20.6837 203.362 18.9063ZM202.121 51.2057C205.512 54.7758 209.725 56.5608 214.761 56.5608C219.792 56.5608 224.016 54.7758 227.433 51.2057C230.85 47.6305 232.558 43.0338 232.558 37.4156C232.558 31.7975 230.85 27.2008 227.433 23.6256C224.016 20.0555 219.792 18.2705 214.761 18.2705C209.725 18.2705 205.512 20.0555 202.121 23.6256C198.724 27.2008 197.026 31.7975 197.026 37.4156C197.026 43.0338 198.724 47.6305 202.121 51.2057ZM290.67 17.8644H289.528C288.537 17.8644 287.682 18.1913 286.962 18.845C286.241 19.4937 285.861 20.2904 285.82 21.2353V49.9569C285.82 52.5617 285.976 55.0337 286.287 57.3729L286.425 58.5834H285.82L250.763 25.3493V53.4581C250.763 54.4489 251.12 55.2814 251.835 55.9556C252.555 56.6298 253.434 56.9669 254.471 56.9669H255.612V57.6411H242.872V56.9669H244.021C245.053 56.9669 245.928 56.6298 246.649 55.9556C247.369 55.2814 247.729 54.4489 247.729 53.4581V24.6062C247.729 21.8635 247.57 19.4145 247.254 17.2592L247.116 16.179L247.859 16.2479L282.847 49.2138V21.2353C282.761 20.2904 282.357 19.4937 281.637 18.845C280.917 18.1913 280.064 17.8644 279.078 17.8644H277.929V17.1902H290.67V17.8644ZM318.312 58.5834C311.438 58.5374 306.011 56.6272 302.033 52.8528C298.054 49.0785 296.064 43.9225 296.064 37.385C296.064 30.8424 298.054 25.6839 302.033 21.9095C306.011 18.1351 311.438 16.2479 318.312 16.2479C321.101 16.2479 323.91 16.608 326.74 17.3281C329.569 18.0432 332.018 19.0315 334.087 20.293L335.573 29.8618H334.968C333.032 22.1342 327.457 18.2705 318.244 18.2705C312.896 18.2705 308.672 19.9789 305.572 23.3958C302.472 26.8075 300.922 31.4808 300.922 37.4156C300.922 41.282 301.616 44.6427 303.005 47.4977C304.4 50.3477 306.422 52.5592 309.073 54.1323C311.729 55.7053 314.809 56.4919 318.312 56.4919C321.816 56.4919 324.883 55.9658 327.513 54.9137C330.144 53.8565 332.325 52.1148 334.056 49.6888C335.788 47.2577 336.766 44.2443 336.99 40.6486H337.596L336.852 49.888C335.101 52.5847 332.562 54.7094 329.237 56.2621C325.907 57.8096 322.266 58.5834 318.312 58.5834ZM356.542 19.2817H352.964V53.3278C353.01 54.7222 353.641 55.7768 354.856 56.4919C355.438 56.8085 356.09 56.9669 356.81 56.9669H357.683L357.752 57.6411H343.931V56.9669H344.874C345.91 56.9669 346.799 56.6196 347.54 55.925C348.28 55.2252 348.651 54.3825 348.651 53.3968V21.3732C348.651 20.3824 348.28 19.5499 347.54 18.8757C346.799 18.2015 345.91 17.8644 344.874 17.8644H343.931V17.1902H360.855C365.079 17.1902 368.416 18.1555 370.868 20.0861C373.314 22.0219 374.538 24.5628 374.538 27.709C374.538 30.8552 373.549 33.4829 371.573 35.5923C369.596 37.7068 367.078 38.9223 364.019 39.239C365.459 39.8672 367.191 41.6191 369.213 44.4945C369.167 44.4945 369.943 45.4828 371.542 47.4594C373.136 49.436 374.415 50.9759 375.38 52.0791C376.346 53.1823 377.145 54.025 377.778 54.6072C379.438 56.1803 381.348 56.9669 383.509 56.9669V57.6411H381.417C377.868 57.6411 375.082 56.9439 373.059 55.5496C371.527 54.5179 370.132 53.2385 368.876 51.7113C368.605 51.3487 367.471 49.7629 365.474 46.9538C363.472 44.1447 362.405 42.6508 362.272 42.472C359.841 39.4586 357.571 37.9519 355.461 37.9519V37.2777C360.717 37.2777 363.886 37.0096 364.969 36.4733C366.45 35.7072 367.461 34.8977 368.003 34.0447C369.126 32.2469 369.688 30.2704 369.688 28.115C369.688 25.3723 368.879 23.2579 367.259 21.7716C365.64 20.2904 363.46 19.4835 360.717 19.3507C359.506 19.3047 358.115 19.2817 356.542 19.2817ZM386.202 56.9669H387.145C388.222 56.9669 389.134 56.6196 389.88 55.925C390.62 55.2252 391.014 54.3825 391.06 53.3968V21.3732C391.06 20.3824 390.677 19.5499 389.91 18.8757C389.144 18.2015 388.222 17.8644 387.145 17.8644H386.202V17.1902H405.892C407.73 17.1902 409.347 17.0549 410.741 16.7842C412.135 16.5135 413.034 16.2888 413.438 16.11V23.7941L412.695 23.7328V22.7216C412.695 21.7767 412.381 20.9672 411.752 20.293C411.124 19.6188 410.315 19.2817 409.324 19.2817H395.304V36.4044H406.834C407.733 36.4044 408.417 36.1337 408.887 35.5923C409.362 35.056 409.6 34.3818 409.6 33.5698V32.6964H410.335V42.1349H409.6V41.2615C409.6 40 409.127 39.1445 408.182 38.6951C407.82 38.5623 407.437 38.4729 407.033 38.4269H395.304V55.5496H405.892C407.955 55.5496 409.697 55.1895 411.116 54.4693C412.531 53.7543 413.609 52.9014 414.349 51.9105C415.09 50.9197 415.843 49.6173 416.61 48.0033H417.284L413.576 57.6411H386.202V56.9669ZM453.213 19.1438H441.016V53.3968C441.057 54.786 441.731 55.8177 443.039 56.4919C443.621 56.8085 444.272 56.9669 444.993 56.9669H445.736V57.6411H431.846V56.9669H432.65C433.733 56.9669 434.655 56.6068 435.416 55.8867C436.182 55.1665 436.588 54.3136 436.634 53.3278V19.1438H424.43C423.393 19.1438 422.573 19.4809 421.971 20.1551C421.363 20.8293 421.059 21.6388 421.059 22.5837V23.6639H420.316V16.0411C421.215 16.4037 422.484 16.6744 424.124 16.8531C425.763 17.0319 426.989 17.1213 427.801 17.1213H449.781C453.014 17.1213 455.529 16.7612 457.327 16.0411V23.6639H456.584V22.5837C456.584 21.6388 456.27 20.8293 455.641 20.1551C455.013 19.4809 454.204 19.1438 453.213 19.1438ZM461.98 56.9669H462.923C464 56.9669 464.912 56.6196 465.658 55.925C466.398 55.2252 466.791 54.3825 466.837 53.3968V21.3732C466.837 20.3824 466.454 19.5499 465.688 18.8757C464.922 18.2015 464 17.8644 462.923 17.8644H461.98V17.1902H481.669C483.508 17.1902 485.125 17.0549 486.519 16.7842C487.913 16.5135 488.812 16.2888 489.216 16.11V23.7941L488.473 23.7328V22.7216C488.473 21.7767 488.158 20.9672 487.53 20.293C486.902 19.6188 486.092 19.2817 485.102 19.2817H471.082V36.4044H482.612C483.511 36.4044 484.195 36.1337 484.665 35.5923C485.14 35.056 485.377 34.3818 485.377 33.5698V32.6964H486.113V42.1349H485.377V41.2615C485.377 40 484.905 39.1445 483.96 38.6951C483.597 38.5623 483.214 38.4729 482.811 38.4269H471.082V55.5496H481.669C483.733 55.5496 485.474 55.1895 486.894 54.4693C488.309 53.7543 489.387 52.9014 490.127 51.9105C490.868 50.9197 491.621 49.6173 492.387 48.0033H493.062L489.354 57.6411H461.98V56.9669Z" fill="white"/>
<path d="M240.47 79.0392H239.916C238.892 79.0392 238.11 79.4799 237.57 80.3614C237.343 80.7595 237.215 81.2145 237.186 81.7263V108.469C237.186 110.858 236.44 112.877 234.947 114.526C233.454 116.175 231.613 117 229.423 117V116.616C230.817 116.133 231.997 115.088 232.964 113.481C233.93 111.875 234.414 110.161 234.414 108.342V81.7263C234.385 80.987 234.108 80.3543 233.582 79.8283C233.056 79.3022 232.423 79.0392 231.684 79.0392H231.13V78.6127H240.47V79.0392ZM270.754 82.8779V83.3045H270.114C269.346 83.3045 268.763 83.603 268.365 84.2002C268.195 84.4561 268.095 84.7546 268.067 85.0959V99.4698C268.067 102.427 267.121 104.766 265.23 106.486C263.339 108.206 260.745 109.067 257.446 109.067C254.148 109.067 251.546 108.214 249.641 106.507C247.736 104.801 246.783 102.47 246.783 99.5124V85.1385C246.783 84.6267 246.584 84.193 246.186 83.8376C245.788 83.4822 245.304 83.3045 244.736 83.3045H244.096V82.8779H252.2V83.3045H251.56C250.991 83.3045 250.508 83.4822 250.11 83.8376C249.712 84.193 249.513 84.6267 249.513 85.1385V99.0006C249.513 101.759 250.217 103.934 251.624 105.526C253.032 107.119 255.022 107.915 257.595 107.915C260.169 107.915 262.23 107.161 263.78 105.654C265.33 104.147 266.105 102.086 266.105 99.4698V85.1385C266.076 84.5982 265.87 84.1575 265.486 83.8163C265.102 83.4751 264.626 83.3045 264.057 83.3045H263.418V82.8779H270.754ZM303.98 83.3045H303.255C302.629 83.3045 302.089 83.5106 301.634 83.9229C301.179 84.3352 300.938 84.8399 300.909 85.4371V103.607C300.909 105.256 301.009 106.82 301.208 108.299L301.293 109.067H300.909L278.73 88.0389V105.825C278.73 106.451 278.957 106.977 279.412 107.403C279.867 107.83 280.422 108.043 281.076 108.043H281.801V108.469H273.739V108.043H274.465C275.119 108.043 275.673 107.83 276.128 107.403C276.583 106.977 276.81 106.451 276.81 105.825V87.5697C276.81 85.8352 276.711 84.2855 276.512 82.9206L276.427 82.2381L276.896 82.2808L299.032 103.138V85.4371C298.976 84.8399 298.72 84.3352 298.265 83.9229C297.81 83.5106 297.269 83.3045 296.644 83.3045H295.919V82.8779H303.98V83.3045ZM321.382 109.067C317.146 109.038 313.755 107.823 311.21 105.42C308.665 103.017 307.392 99.7612 307.392 95.6524C307.392 91.5435 308.665 88.2877 311.21 85.8849C313.755 83.4822 317.039 82.2808 321.063 82.2808C325.086 82.2808 328.505 83.1338 331.32 84.8399L332.259 90.8966H331.875C331.278 88.3943 330.119 86.546 328.399 85.3518C326.678 84.1575 324.247 83.5604 321.105 83.5604C317.963 83.5604 315.404 84.648 313.428 86.8233C311.451 88.9986 310.463 91.9487 310.463 95.6737C310.463 99.3987 311.459 102.349 313.449 104.524C315.439 106.699 318.191 107.787 321.702 107.787C325.214 107.787 328.235 106.55 330.766 104.076L330.809 98.4035C330.837 97.8916 330.674 97.4864 330.318 97.1879C329.963 96.8893 329.472 96.74 328.847 96.74H328.249V96.3135H336.055V96.74H335.458C334.178 96.74 333.538 97.3087 333.538 98.4461V103.564C332.344 105.043 330.702 106.33 328.612 107.424C326.522 108.519 324.112 109.067 321.382 109.067ZM338.614 108.043H339.211C339.894 108.043 340.469 107.823 340.939 107.382C341.408 106.941 341.657 106.408 341.685 105.782V85.6077C341.657 84.9821 341.394 84.4419 340.896 83.9869C340.398 83.5319 339.808 83.3045 339.126 83.3045H338.614V82.8779H347.443V83.3045H346.931C346.249 83.3045 345.659 83.5319 345.161 83.9869C344.664 84.4419 344.415 84.9821 344.415 85.6077V107.147H351.069C352.377 107.147 353.486 106.92 354.396 106.465C355.305 106.01 355.995 105.47 356.464 104.844C356.933 104.218 357.395 103.394 357.85 102.37H358.277L355.931 108.469H338.614V108.043ZM360.452 108.043H361.049C361.732 108.043 362.308 107.823 362.777 107.382C363.246 106.941 363.495 106.408 363.523 105.782V85.5224C363.523 84.8968 363.281 84.3708 362.798 83.9442C362.315 83.5177 361.732 83.3045 361.049 83.3045H360.452V82.8779H372.907C374.073 82.8779 375.096 82.7926 375.978 82.622C376.859 82.4514 377.428 82.3092 377.684 82.1955V87.0579L377.215 87.0152V86.3754C377.215 85.7783 377.016 85.2665 376.617 84.8399C376.219 84.4134 375.708 84.2002 375.082 84.2002H366.21V95.0339H373.504C374.073 95.0339 374.506 94.8633 374.805 94.5221C375.103 94.1809 375.253 93.7543 375.253 93.2425V92.688H375.722V98.6594H375.253V98.1049C375.253 97.3087 374.954 96.7685 374.357 96.4841C374.129 96.3988 373.888 96.3419 373.632 96.3135H366.21V107.147H372.907C374.215 107.147 375.317 106.92 376.212 106.465C377.108 106.01 377.79 105.47 378.26 104.844C378.729 104.218 379.205 103.394 379.688 102.37H380.115L377.769 108.469H360.452V108.043Z" fill="#6CAC3D"/>
<path d="M127.223 45.4708L109.093 39.9011V26.3953C109.093 25.6272 108.66 24.9274 107.97 24.5896L59.0097 0.360977C59.0044 0.358307 58.9934 0.358307 58.9716 0.358307C58.8791 0.309132 58.5142 0.14047 57.983 0.170287C57.4301 0.200325 57.0271 0.467114 56.9508 0.527192L22.0326 25.4256C21.5015 25.804 21.1855 26.4142 21.1855 27.0652V44.4494L14.698 43.6758C14.6954 43.6758 14.6762 43.6785 14.6409 43.684C14.5565 43.6785 14.3603 43.6702 14.1751 43.6949C13.9408 43.725 13.7395 43.8013 13.6631 43.8311C13.6522 43.8338 13.6442 43.8364 13.6442 43.8364L1.83766 49.0659C1.10783 49.3872 0.639221 50.1117 0.639221 50.9069V84.5884C0.639221 85.3264 1.04241 86.0047 1.68502 86.3533L13.5187 92.8408C13.5187 92.8408 13.8294 93.0206 14.2023 93.0669C14.5347 93.1103 14.777 93.0669 14.777 93.0669L21.1826 92.1352V95.8476C21.1826 96.5857 21.5858 97.2612 22.2284 97.615L57.1413 116.748C57.1413 116.748 57.5307 116.974 58.04 116.998C58.4294 117.017 58.8108 116.876 58.8108 116.876V116.865C58.8161 116.865 58.8217 116.865 58.8217 116.865L107.785 98.2496L127.34 90.8142C128.122 90.5174 128.639 89.7686 128.639 88.9324V47.3988C128.647 46.5112 128.07 45.7293 127.223 45.4708ZM6.25781 76.2165C6.25781 76.4261 6.15968 76.625 5.9908 76.75C5.87086 76.8399 5.72935 76.8889 5.58494 76.8889C5.52486 76.8889 5.46501 76.8809 5.40515 76.8646L3.16381 76.2407C2.87233 76.1591 2.67096 75.8949 2.67096 75.5926V69.3449C2.67096 69.1569 2.74995 68.9745 2.89146 68.8465C3.03053 68.7186 3.21833 68.6585 3.40613 68.6776L5.64746 68.8955C5.99057 68.9308 6.25469 69.2168 6.25469 69.5628V76.2162H6.25781V76.2165ZM6.25781 62.912C6.25781 63.2633 5.98813 63.5521 5.63945 63.5819L3.39812 63.7673C3.38165 63.7673 3.36274 63.7673 3.3436 63.7673C3.17739 63.7673 3.01406 63.7072 2.88879 63.5931C2.74995 63.4649 2.67096 63.288 2.67096 63.0971V56.8495C2.67096 56.5444 2.87789 56.2776 3.17205 56.2013L5.41361 55.6103C5.6152 55.5587 5.82747 55.6021 5.99369 55.7302C6.1599 55.8555 6.25514 56.0515 6.25514 56.2587V62.9122H6.25781V62.912ZM12.8107 78.0384C12.8107 78.248 12.7128 78.444 12.5464 78.572C12.4264 78.6618 12.2849 78.7081 12.1405 78.7081C12.0807 78.7081 12.0206 78.6999 11.9607 78.6837L8.88854 77.8285C8.59705 77.7496 8.39568 77.4825 8.39568 77.183V69.903C8.39568 69.7152 8.47445 69.5327 8.61619 69.4048C8.75503 69.2768 8.94305 69.2168 9.13374 69.2359L12.2059 69.5354C12.5519 69.5681 12.8132 69.8567 12.8132 70.2027V78.0384H12.8107ZM12.8107 62.3726C12.8107 62.7213 12.541 63.0128 12.1953 63.0428L9.12039 63.296C9.10148 63.296 9.08501 63.296 9.06588 63.296C8.89699 63.296 8.73367 63.2335 8.61107 63.1191C8.472 62.9912 8.39323 62.8141 8.39323 62.6234V55.3462C8.39323 55.0411 8.60039 54.7743 8.89432 54.6953L11.9692 53.8892C12.1708 53.8347 12.383 53.8783 12.5493 54.0062C12.7128 54.1342 12.8107 54.3302 12.8107 54.5374V62.3726ZM29.6284 82.7066C29.6284 82.9162 29.5303 83.1152 29.3641 83.2402C29.247 83.3301 29.1026 83.379 28.9582 83.379C28.8957 83.379 28.8356 83.371 28.7784 83.3546L24.8158 82.2545C24.5243 82.1728 24.3227 81.9085 24.3227 81.609V71.4583C24.3227 71.2679 24.4017 71.0878 24.5434 70.9599C24.6823 70.832 24.8703 70.7721 25.0581 70.7857L29.0208 71.1753C29.3665 71.2078 29.628 71.4966 29.628 71.8424V82.7066H29.6284ZM29.6284 60.9837C29.6284 61.3324 29.3614 61.6238 29.013 61.651L25.0501 61.9779C25.0338 61.9808 25.0147 61.9808 24.9956 61.9808C24.8267 61.9808 24.6633 61.918 24.5407 61.8036C24.4017 61.6757 24.3229 61.4959 24.3229 61.3079V51.1574C24.3229 50.8524 24.5298 50.5856 24.824 50.5093L28.7867 49.4662C28.9883 49.4145 29.2034 49.4579 29.3668 49.5861C29.5301 49.7114 29.6282 49.9074 29.6282 50.1145V60.9837H29.6284ZM29.6284 39.2556C29.6284 39.5224 29.4731 39.765 29.2308 39.8711L25.2681 41.6249C25.1809 41.6632 25.0883 41.685 24.9958 41.685C24.8678 41.685 24.7399 41.6469 24.6282 41.576C24.4375 41.4507 24.3231 41.2382 24.3231 41.0121V30.8617C24.3231 30.6301 24.4431 30.4149 24.6391 30.2923L28.6018 27.8249C28.8089 27.6943 29.0701 27.6887 29.2826 27.806C29.4951 27.9259 29.6286 28.1491 29.6286 28.3943L29.6284 39.2556ZM39.5012 85.4491C39.5012 85.6587 39.403 85.8576 39.2368 85.9829C39.1198 86.0725 38.9754 86.1217 38.831 86.1217C38.7711 86.1217 38.711 86.1135 38.6512 86.0972L33.343 84.6211C33.0515 84.5421 32.8501 84.2751 32.8501 83.9756V72.2892C32.8501 72.1012 32.9291 71.9187 33.0706 71.7908C33.2097 71.6657 33.3975 71.6056 33.5853 71.6219L38.8962 72.1392C39.2393 72.1746 39.5007 72.4605 39.5007 72.8065V85.4491H39.5012ZM39.5012 60.1666C39.5012 60.518 39.2342 60.8068 38.8855 60.8366L33.5775 61.2752C33.5584 61.2752 33.5395 61.2781 33.5203 61.2781C33.3515 61.2781 33.1908 61.2127 33.0655 61.0983C32.9267 60.9703 32.8477 60.7932 32.8477 60.6025V48.9186C32.8477 48.6135 33.0546 48.3467 33.3488 48.2704L38.6567 46.8732C38.8583 46.8187 39.0735 46.8623 39.2368 46.9903C39.403 47.1182 39.4983 47.3143 39.4983 47.5214V60.1666H39.5012ZM39.5012 34.8844C39.5012 35.1514 39.3459 35.3938 39.1035 35.5001L33.7954 37.8505C33.7081 37.8914 33.6156 37.9077 33.523 37.9077C33.3951 37.9077 33.2671 37.8696 33.1581 37.7989C32.9676 37.6763 32.853 37.4638 32.853 37.235V25.5511C32.853 25.3194 32.973 25.1045 33.169 24.9819L38.477 21.6727C38.6839 21.5421 38.9453 21.5365 39.1578 21.6536C39.3703 21.7735 39.5038 21.9967 39.5038 22.2419V34.8844H39.5012ZM53.2385 89.2649C53.2385 89.4638 53.1621 89.6543 53.0206 89.7904C52.7754 90.0381 52.4459 90.0381 52.3315 90.0381C52.3315 90.0381 52.3315 90.0381 52.3288 90.0381C51.0051 90.0381 45.8687 88.1888 44.8554 87.8212C44.5886 87.7258 44.4142 87.4728 44.4142 87.1893V73.4191C44.4142 73.2313 44.4932 73.0488 44.632 72.9209C44.7735 72.7929 44.9616 72.7329 45.1496 72.752L52.631 73.4818C52.9741 73.5172 53.2382 73.8058 53.2382 74.1489C53.2385 74.2962 53.2331 88.6191 53.2385 89.2649ZM53.2385 59.0336C53.2385 59.3821 52.969 59.6738 52.6203 59.7009L45.1387 60.3191C45.1198 60.3191 45.1006 60.3219 45.0842 60.3219C44.9153 60.3219 44.7519 60.2565 44.6293 60.1419C44.4903 60.014 44.4115 59.8371 44.4115 59.6462V45.8762C44.4115 45.5738 44.6158 45.3043 44.9126 45.228L52.394 43.2617C52.5956 43.2072 52.8081 43.2508 52.9741 43.3787C53.1401 43.5067 53.2356 43.7029 53.2356 43.9099V59.0334H53.2385V59.0336ZM53.2385 28.8001C53.2385 29.0669 53.0805 29.3066 52.8382 29.4129L45.3567 32.7274C45.2695 32.7684 45.1769 32.7846 45.0844 32.7846C44.9564 32.7846 44.8285 32.7466 44.7168 32.6758C44.5261 32.5505 44.4117 32.3407 44.4117 32.112V18.3444C44.4117 18.1103 44.5317 17.8949 44.7277 17.7726L52.2094 13.1128C52.4163 12.9822 52.6777 12.9766 52.8902 13.0936C53.1027 13.2136 53.236 13.4367 53.236 13.682V28.8001H53.2385ZM82.9793 21.2642C82.9793 21.0381 83.0939 20.8285 83.2817 20.7032C83.4695 20.578 83.7091 20.5588 83.9163 20.6461L91.9017 24.0994C92.1469 24.2058 92.3073 24.4481 92.3073 24.7175V36.6438C92.3073 36.8563 92.2068 37.0577 92.035 37.183C91.918 37.2702 91.7791 37.3165 91.6374 37.3165C91.572 37.3165 91.5039 37.3056 91.4413 37.2864L83.4559 34.8326C83.1727 34.7454 82.982 34.4841 82.982 34.1927V21.2642H82.9793ZM82.9793 47.1131C82.9793 46.9142 83.0665 46.7237 83.2189 46.5984C83.3716 46.4705 83.5758 46.4187 83.7692 46.454L91.7573 47.9084C92.0759 47.9684 92.3073 48.2435 92.3073 48.5674V60.6052C92.3073 60.7903 92.231 60.9703 92.0922 61.0983C91.9671 61.2153 91.8036 61.2781 91.6347 61.2781C91.6182 61.2781 91.602 61.2752 91.5882 61.2752L83.603 60.706C83.2517 60.6815 82.9791 60.39 82.9791 60.0387V47.1131H82.9793ZM62.1907 12.2766C62.1907 12.0505 62.3051 11.8409 62.4931 11.7156C62.6809 11.593 62.9205 11.5712 63.1277 11.6611L74.4712 16.5661C74.7164 16.6725 74.8768 16.9148 74.8768 17.1845V31.2896C74.8768 31.5021 74.7763 31.7037 74.6045 31.8289C74.4875 31.9162 74.3457 31.9624 74.2069 31.9624C74.1415 31.9624 74.0734 31.9515 74.0079 31.9324L62.6646 28.4463C62.3814 28.362 62.1907 28.1003 62.1907 27.8064V12.2766ZM62.1907 58.8485V43.3244C62.1907 43.1255 62.2779 42.9351 62.4303 42.8098C62.583 42.6818 62.7843 42.63 62.9806 42.6654L74.3239 44.7327C74.6425 44.7926 74.8766 45.0705 74.8766 45.3944V59.4993C74.8766 59.6847 74.8003 59.8616 74.6643 59.9895C74.5391 60.1066 74.3729 60.172 74.2042 60.172C74.1904 60.172 74.1768 60.172 74.1659 60.1693L62.8226 59.5211C62.4686 59.4967 62.1907 59.2054 62.1907 58.8485ZM84.3219 105.276C84.3219 105.557 84.1477 105.802 83.8891 105.903L69.0431 111.546C68.9668 111.576 68.8851 111.589 68.8063 111.589C68.6726 111.589 68.5367 111.548 68.425 111.472C68.2425 111.347 68.1361 111.14 68.1361 110.919V73.9669C68.1361 73.6127 68.4087 73.3214 68.7625 73.2967L83.6086 72.2916C83.7964 72.278 83.9761 72.3461 84.1123 72.4716C84.2485 72.5967 84.3248 72.7738 84.3248 72.9618V105.276H84.3219ZM102.213 98.4728C102.213 98.7533 102.041 99.0012 101.78 99.0991L91.8741 102.866C91.7954 102.896 91.7164 102.912 91.6347 102.912C91.501 102.912 91.3677 102.869 91.2533 102.792C91.0735 102.667 90.9645 102.46 90.9645 102.24V72.4225C90.9645 72.0684 91.2371 71.7772 91.5909 71.7525L101.496 71.0823C101.684 71.0687 101.864 71.1341 102 71.2594C102.136 71.3847 102.213 71.5645 102.213 71.7496V98.4728ZM105.075 61.2262C105.075 61.4114 104.999 61.5885 104.863 61.7164C104.737 61.8335 104.571 61.8989 104.403 61.8989C104.389 61.8989 104.375 61.8989 104.364 61.8989L98.4379 61.5584C98.0839 61.5366 97.806 61.2451 97.806 60.8885V49.8148C97.806 49.6159 97.8959 49.4254 98.0456 49.2973C98.201 49.1693 98.4025 49.1201 98.5984 49.1529L104.522 50.234C104.841 50.2912 105.075 50.5689 105.075 50.8931V61.2262H105.075ZM105.075 40.5655C105.075 40.778 104.974 40.9796 104.803 41.1049C104.686 41.1921 104.544 41.2384 104.405 41.2384C104.34 41.2384 104.271 41.2275 104.206 41.2057L98.2824 39.3865C97.9994 39.2992 97.8087 39.0378 97.8087 38.7465V27.6727C97.8087 27.4466 97.923 27.237 98.1108 27.1117C98.2986 26.9865 98.5385 26.9673 98.7454 27.0572L104.672 29.6174C104.917 29.7238 105.078 29.9659 105.078 30.2355V40.5658H105.075V40.5655ZM116.917 79.6071C116.917 79.9284 116.688 80.2063 116.372 80.2661L112.066 81.0968C112.023 81.105 111.982 81.1077 111.941 81.1077C111.786 81.1077 111.633 81.0534 111.513 80.9526C111.358 80.8273 111.271 80.6366 111.271 80.4379V71.05C111.271 70.696 111.544 70.4047 111.898 70.38L116.204 70.0886C116.389 70.0777 116.571 70.1428 116.707 70.2683C116.843 70.3934 116.92 70.5705 116.92 70.7585V79.6073H116.917V79.6071ZM116.917 61.9069C116.917 62.0893 116.841 62.2665 116.705 62.3944C116.579 62.5114 116.416 62.5766 116.244 62.5766C116.231 62.5766 116.22 62.5766 116.206 62.5766L111.9 62.329C111.546 62.3072 111.268 62.0159 111.268 61.659V52.2713C111.268 52.0726 111.356 51.8846 111.508 51.7567C111.661 51.6287 111.862 51.5769 112.058 51.6096L116.362 52.3939C116.68 52.4511 116.914 52.7317 116.914 53.0557V61.9069H116.917ZM124.197 78.2019C124.197 78.5232 123.968 78.8009 123.652 78.861L120.207 79.5254C120.164 79.5336 120.123 79.5363 120.082 79.5363C119.927 79.5363 119.774 79.482 119.654 79.3812C119.499 79.2533 119.412 79.0653 119.412 78.8666V70.4944C119.412 70.1431 119.687 69.8516 120.038 69.8271L123.481 69.5928C123.666 69.5792 123.849 69.6473 123.985 69.7699C124.121 69.8979 124.197 70.075 124.197 70.263V78.2019H124.197ZM124.197 62.321C124.197 62.5063 124.121 62.6832 123.987 62.8112C123.862 62.9282 123.699 62.9936 123.527 62.9936C123.513 62.9936 123.503 62.9936 123.489 62.9909L120.046 62.7947C119.692 62.7756 119.415 62.4816 119.415 62.1247V53.8616C119.415 53.6656 119.499 53.4775 119.649 53.3496C119.796 53.2217 119.992 53.1671 120.185 53.1943L123.63 53.7145C123.96 53.7635 124.2 54.047 124.2 54.3792V62.3208L124.197 62.321Z" fill="#6CAC3D"/>
</svg>
